<mxfile host="app.diagrams.net" agent="Mozilla/5.0 (Windows NT 10.0; Win64; x64) AppleWebKit/537.36 (KHTML, like Gecko) Chrome/131.0.0.0 Safari/537.36" version="25.0.1">
  <diagram name="Page-1" id="w0ppB73_fTcAesQlTo7u">
    <mxGraphModel dx="2390" dy="1230" grid="1" gridSize="10" guides="1" tooltips="1" connect="1" arrows="1" fold="1" page="1" pageScale="1" pageWidth="1600" pageHeight="900" math="0" shadow="0">
      <root>
        <mxCell id="0" />
        <mxCell id="1" parent="0" />
        <mxCell id="fz_pyWFYt5tnEP6ohB9D-101" value="" style="ellipse;whiteSpace=wrap;html=1;fillColor=none;strokeWidth=2;dashed=1;dashPattern=8 8;" parent="1" vertex="1">
          <mxGeometry x="1780" y="200" width="1144" height="1670" as="geometry" />
        </mxCell>
        <mxCell id="fz_pyWFYt5tnEP6ohB9D-94" value="" style="rounded=1;whiteSpace=wrap;html=1;fillColor=#1ba1e2;opacity=10;fontColor=#ffffff;strokeColor=#006EAF;" parent="1" vertex="1">
          <mxGeometry x="950" y="300" width="1900" height="1450" as="geometry" />
        </mxCell>
        <mxCell id="fz_pyWFYt5tnEP6ohB9D-28" value="" style="rounded=1;whiteSpace=wrap;html=1;fillColor=#FF8000;opacity=10;" parent="1" vertex="1">
          <mxGeometry x="10" y="300" width="810" height="1450" as="geometry" />
        </mxCell>
        <mxCell id="fz_pyWFYt5tnEP6ohB9D-98" style="edgeStyle=orthogonalEdgeStyle;rounded=0;orthogonalLoop=1;jettySize=auto;html=1;exitX=0.5;exitY=1;exitDx=0;exitDy=0;curved=1;strokeColor=#FF8000;strokeWidth=3;entryX=0.5;entryY=0;entryDx=0;entryDy=0;" parent="1" source="fz_pyWFYt5tnEP6ohB9D-1" target="fz_pyWFYt5tnEP6ohB9D-3" edge="1">
          <mxGeometry relative="1" as="geometry" />
        </mxCell>
        <mxCell id="fz_pyWFYt5tnEP6ohB9D-1" value="GitLab" style="shape=image;verticalLabelPosition=bottom;labelBackgroundColor=default;verticalAlign=top;aspect=fixed;imageAspect=0;image=https://cdn.worldvectorlogo.com/logos/gitlab-3.svg;fontSize=65;strokeWidth=3;fontColor=#8F8F8F;" parent="1" vertex="1">
          <mxGeometry x="335" y="10" width="170" height="163.48" as="geometry" />
        </mxCell>
        <mxCell id="fz_pyWFYt5tnEP6ohB9D-51" style="edgeStyle=orthogonalEdgeStyle;rounded=0;orthogonalLoop=1;jettySize=auto;html=1;dashed=1;dashPattern=8 8;strokeWidth=2;endSize=16;startSize=6;curved=1;entryX=0;entryY=0.5;entryDx=0;entryDy=0;" parent="1" source="fz_pyWFYt5tnEP6ohB9D-50" target="fz_pyWFYt5tnEP6ohB9D-12" edge="1">
          <mxGeometry relative="1" as="geometry" />
        </mxCell>
        <mxCell id="fz_pyWFYt5tnEP6ohB9D-50" value="" style="ellipse;whiteSpace=wrap;html=1;fillColor=none;strokeWidth=2;dashed=1;dashPattern=8 8;" parent="1" vertex="1">
          <mxGeometry x="1020" y="596" width="510" height="1110" as="geometry" />
        </mxCell>
        <mxCell id="fz_pyWFYt5tnEP6ohB9D-29" style="edgeStyle=orthogonalEdgeStyle;rounded=0;orthogonalLoop=1;jettySize=auto;html=1;exitX=0.5;exitY=1;exitDx=0;exitDy=0;strokeColor=#FF8000;strokeWidth=2;" parent="1" source="fz_pyWFYt5tnEP6ohB9D-3" target="fz_pyWFYt5tnEP6ohB9D-15" edge="1">
          <mxGeometry relative="1" as="geometry" />
        </mxCell>
        <mxCell id="fz_pyWFYt5tnEP6ohB9D-3" value="&lt;font color=&quot;#ff8000&quot; style=&quot;font-size: 22px;&quot;&gt;test-app&lt;/font&gt;" style="rounded=1;whiteSpace=wrap;html=1;verticalAlign=top;fillColor=#FF8000;strokeColor=#d79b00;opacity=20;" parent="1" vertex="1">
          <mxGeometry x="170" y="690" width="500" height="200" as="geometry" />
        </mxCell>
        <mxCell id="fz_pyWFYt5tnEP6ohB9D-104" style="edgeStyle=orthogonalEdgeStyle;rounded=0;orthogonalLoop=1;jettySize=auto;html=1;entryX=0;entryY=1;entryDx=0;entryDy=0;curved=1;exitX=0.5;exitY=0;exitDx=0;exitDy=0;strokeWidth=2;dashed=1;dashPattern=8 8;endSize=16;" parent="1" source="fz_pyWFYt5tnEP6ohB9D-12" target="fz_pyWFYt5tnEP6ohB9D-101" edge="1">
          <mxGeometry relative="1" as="geometry">
            <Array as="points">
              <mxPoint x="1646" y="1626" />
            </Array>
          </mxGeometry>
        </mxCell>
        <mxCell id="fz_pyWFYt5tnEP6ohB9D-12" value="" style="shape=image;verticalLabelPosition=bottom;labelBackgroundColor=default;verticalAlign=top;aspect=fixed;imageAspect=0;image=https://images.squarespace-cdn.com/content/v1/5979393017bffc7e4595795b/1612198269255-W6DPDQBCHH716OYRSJWJ/docker-hub-logo.png;" parent="1" vertex="1">
          <mxGeometry x="1510" y="1970.52" width="271" height="215.95" as="geometry" />
        </mxCell>
        <mxCell id="fz_pyWFYt5tnEP6ohB9D-13" value="Container mongo&lt;br&gt;(Service Gitlab)" style="rounded=1;whiteSpace=wrap;html=1;fontSize=16;" parent="1" vertex="1">
          <mxGeometry x="190" y="760" width="160" height="90" as="geometry" />
        </mxCell>
        <mxCell id="fz_pyWFYt5tnEP6ohB9D-14" value="Container Python&lt;br&gt;&lt;br&gt;&lt;div style=&quot;color: rgb(204, 204, 204); background-color: rgb(31, 31, 31); font-family: Consolas, &amp;quot;Courier New&amp;quot;, monospace; font-size: 14px; line-height: 19px; white-space: pre;&quot;&gt;&lt;span style=&quot;color: #ce9178;&quot;&gt;python3 -m pytest tests/&lt;/span&gt;&lt;/div&gt;" style="rounded=1;whiteSpace=wrap;html=1;fontSize=16;" parent="1" vertex="1">
          <mxGeometry x="410" y="760" width="240" height="90" as="geometry" />
        </mxCell>
        <mxCell id="fz_pyWFYt5tnEP6ohB9D-31" style="edgeStyle=orthogonalEdgeStyle;rounded=0;orthogonalLoop=1;jettySize=auto;html=1;strokeColor=#FF8000;strokeWidth=2;" parent="1" source="fz_pyWFYt5tnEP6ohB9D-15" target="fz_pyWFYt5tnEP6ohB9D-18" edge="1">
          <mxGeometry relative="1" as="geometry" />
        </mxCell>
        <mxCell id="fz_pyWFYt5tnEP6ohB9D-15" value="&lt;font color=&quot;#ff8000&quot; style=&quot;font-size: 22px;&quot;&gt;test-app_admin&lt;/font&gt;" style="rounded=1;whiteSpace=wrap;html=1;verticalAlign=top;fillColor=#FF8000;strokeColor=#d79b00;opacity=20;" parent="1" vertex="1">
          <mxGeometry x="170" y="940" width="500" height="200" as="geometry" />
        </mxCell>
        <mxCell id="fz_pyWFYt5tnEP6ohB9D-16" value="Container mongo&lt;br&gt;(Service Gitlab)" style="rounded=1;whiteSpace=wrap;html=1;fontSize=16;" parent="1" vertex="1">
          <mxGeometry x="190" y="1010" width="160" height="90" as="geometry" />
        </mxCell>
        <mxCell id="fz_pyWFYt5tnEP6ohB9D-17" value="Container Python&lt;br&gt;&lt;br&gt;&lt;div style=&quot;color: rgb(204, 204, 204); background-color: rgb(31, 31, 31); font-family: Consolas, &amp;quot;Courier New&amp;quot;, monospace; font-size: 14px; line-height: 19px; white-space: pre;&quot;&gt;&lt;span style=&quot;color: #ce9178;&quot;&gt;python3 -m pytest tests/&lt;/span&gt;&lt;/div&gt;" style="rounded=1;whiteSpace=wrap;html=1;fontSize=16;" parent="1" vertex="1">
          <mxGeometry x="410" y="1010" width="240" height="90" as="geometry" />
        </mxCell>
        <mxCell id="fz_pyWFYt5tnEP6ohB9D-32" style="edgeStyle=orthogonalEdgeStyle;rounded=0;orthogonalLoop=1;jettySize=auto;html=1;strokeColor=#FF8000;strokeWidth=2;" parent="1" source="fz_pyWFYt5tnEP6ohB9D-18" target="fz_pyWFYt5tnEP6ohB9D-21" edge="1">
          <mxGeometry relative="1" as="geometry" />
        </mxCell>
        <mxCell id="fz_pyWFYt5tnEP6ohB9D-18" value="&lt;font color=&quot;#ff8000&quot; style=&quot;font-size: 22px;&quot;&gt;test-app_dash&lt;/font&gt;" style="rounded=1;whiteSpace=wrap;html=1;verticalAlign=top;fillColor=#FF8000;strokeColor=#d79b00;opacity=20;" parent="1" vertex="1">
          <mxGeometry x="170" y="1200" width="500" height="200" as="geometry" />
        </mxCell>
        <mxCell id="fz_pyWFYt5tnEP6ohB9D-19" value="Container mongo&lt;br&gt;(Service Gitlab)" style="rounded=1;whiteSpace=wrap;html=1;fontSize=16;" parent="1" vertex="1">
          <mxGeometry x="190" y="1270" width="160" height="90" as="geometry" />
        </mxCell>
        <mxCell id="fz_pyWFYt5tnEP6ohB9D-20" value="Container Python&lt;br&gt;&lt;br&gt;&lt;div style=&quot;color: rgb(204, 204, 204); background-color: rgb(31, 31, 31); font-family: Consolas, &amp;quot;Courier New&amp;quot;, monospace; font-size: 14px; line-height: 19px; white-space: pre;&quot;&gt;&lt;span style=&quot;color: #ce9178;&quot;&gt;python3 -m pytest tests/&lt;/span&gt;&lt;/div&gt;" style="rounded=1;whiteSpace=wrap;html=1;fontSize=16;" parent="1" vertex="1">
          <mxGeometry x="410" y="1270" width="240" height="90" as="geometry" />
        </mxCell>
        <mxCell id="fz_pyWFYt5tnEP6ohB9D-106" style="edgeStyle=orthogonalEdgeStyle;rounded=0;orthogonalLoop=1;jettySize=auto;html=1;entryX=0;entryY=0.5;entryDx=0;entryDy=0;curved=1;strokeColor=#FF8000;strokeWidth=2;" parent="1" source="fz_pyWFYt5tnEP6ohB9D-21" target="fz_pyWFYt5tnEP6ohB9D-24" edge="1">
          <mxGeometry relative="1" as="geometry" />
        </mxCell>
        <mxCell id="fz_pyWFYt5tnEP6ohB9D-21" value="&lt;font color=&quot;#ff8000&quot; style=&quot;font-size: 22px;&quot;&gt;test-app_dash&lt;/font&gt;" style="rounded=1;whiteSpace=wrap;html=1;verticalAlign=top;fillColor=#FF8000;strokeColor=#d79b00;opacity=20;" parent="1" vertex="1">
          <mxGeometry x="170" y="1450" width="500" height="200" as="geometry" />
        </mxCell>
        <mxCell id="fz_pyWFYt5tnEP6ohB9D-22" value="Container mongo&lt;br&gt;(Service Gitlab)" style="rounded=1;whiteSpace=wrap;html=1;fontSize=16;" parent="1" vertex="1">
          <mxGeometry x="190" y="1520" width="160" height="90" as="geometry" />
        </mxCell>
        <mxCell id="fz_pyWFYt5tnEP6ohB9D-23" value="Container Python&lt;br&gt;&lt;br&gt;&lt;div style=&quot;color: rgb(204, 204, 204); background-color: rgb(31, 31, 31); font-family: Consolas, &amp;quot;Courier New&amp;quot;, monospace; font-size: 14px; line-height: 19px; white-space: pre;&quot;&gt;&lt;span style=&quot;color: #ce9178;&quot;&gt;python3 -m pytest tests/&lt;/span&gt;&lt;/div&gt;" style="rounded=1;whiteSpace=wrap;html=1;fontSize=16;" parent="1" vertex="1">
          <mxGeometry x="410" y="1520" width="240" height="90" as="geometry" />
        </mxCell>
        <mxCell id="fz_pyWFYt5tnEP6ohB9D-40" style="edgeStyle=orthogonalEdgeStyle;rounded=0;orthogonalLoop=1;jettySize=auto;html=1;fontColor=#66B2FF;strokeColor=#66B2FF;strokeWidth=2;" parent="1" source="fz_pyWFYt5tnEP6ohB9D-24" target="fz_pyWFYt5tnEP6ohB9D-34" edge="1">
          <mxGeometry relative="1" as="geometry" />
        </mxCell>
        <mxCell id="fz_pyWFYt5tnEP6ohB9D-24" value="&lt;font style=&quot;font-size: 22px;&quot;&gt;build-app&lt;/font&gt;" style="rounded=1;whiteSpace=wrap;html=1;verticalAlign=top;fillColor=#0050ef;strokeColor=#001DBC;opacity=20;fontColor=#003366;" parent="1" vertex="1">
          <mxGeometry x="1160" y="686" width="210" height="200" as="geometry" />
        </mxCell>
        <mxCell id="fz_pyWFYt5tnEP6ohB9D-27" value="Docker Executor" style="sketch=0;aspect=fixed;pointerEvents=1;shadow=0;dashed=0;html=1;strokeColor=none;labelPosition=center;verticalLabelPosition=bottom;verticalAlign=top;align=center;fillColor=#FF8000;shape=mxgraph.mscae.enterprise.settings;fontSize=30;fontColor=#8F8F8F;" parent="1" vertex="1">
          <mxGeometry x="80" y="370" width="120" height="120" as="geometry" />
        </mxCell>
        <mxCell id="fz_pyWFYt5tnEP6ohB9D-33" value="&lt;div style=&quot;forced-color-adjust: none; color: rgb(204, 204, 204); background-color: rgb(31, 31, 31); font-family: Consolas, &amp;quot;Courier New&amp;quot;, monospace; font-weight: normal; font-size: 14px; line-height: 19px; white-space: pre;&quot;&gt;&lt;div style=&quot;forced-color-adjust: none;&quot;&gt;&lt;span style=&quot;forced-color-adjust: none; color: rgb(204, 204, 204);&quot;&gt;&amp;nbsp;- &lt;/span&gt;&lt;span style=&quot;forced-color-adjust: none; color: rgb(206, 145, 120);&quot;&gt;docker build&lt;/span&gt;&lt;/div&gt;&lt;div style=&quot;forced-color-adjust: none;&quot;&gt;&lt;span style=&quot;forced-color-adjust: none; color: rgb(204, 204, 204);&quot;&gt;&amp;nbsp;- &lt;/span&gt;&lt;span style=&quot;forced-color-adjust: none; color: rgb(206, 145, 120);&quot;&gt;docker tag&lt;/span&gt;&lt;/div&gt;&lt;div style=&quot;forced-color-adjust: none;&quot;&gt;&lt;span style=&quot;forced-color-adjust: none; color: rgb(204, 204, 204);&quot;&gt;&amp;nbsp;- &lt;/span&gt;&lt;span style=&quot;forced-color-adjust: none; color: rgb(206, 145, 120);&quot;&gt;docker pus&lt;/span&gt;&lt;/div&gt;&lt;/div&gt;" style="text;whiteSpace=wrap;html=1;" parent="1" vertex="1">
          <mxGeometry x="1210" y="756" width="130" height="80" as="geometry" />
        </mxCell>
        <mxCell id="fz_pyWFYt5tnEP6ohB9D-41" style="edgeStyle=orthogonalEdgeStyle;rounded=0;orthogonalLoop=1;jettySize=auto;html=1;fontColor=#66B2FF;strokeColor=#66B2FF;strokeWidth=2;" parent="1" source="fz_pyWFYt5tnEP6ohB9D-34" target="fz_pyWFYt5tnEP6ohB9D-36" edge="1">
          <mxGeometry relative="1" as="geometry" />
        </mxCell>
        <mxCell id="fz_pyWFYt5tnEP6ohB9D-34" value="&lt;font style=&quot;font-size: 22px;&quot;&gt;build-app_admin&lt;/font&gt;" style="rounded=1;whiteSpace=wrap;html=1;verticalAlign=top;fillColor=#0050ef;strokeColor=#001DBC;opacity=20;fontColor=#003366;" parent="1" vertex="1">
          <mxGeometry x="1160" y="936" width="210" height="200" as="geometry" />
        </mxCell>
        <mxCell id="fz_pyWFYt5tnEP6ohB9D-35" value="&lt;div style=&quot;forced-color-adjust: none; color: rgb(204, 204, 204); background-color: rgb(31, 31, 31); font-family: Consolas, &amp;quot;Courier New&amp;quot;, monospace; font-weight: normal; font-size: 14px; line-height: 19px; white-space: pre;&quot;&gt;&lt;div style=&quot;forced-color-adjust: none;&quot;&gt;&lt;span style=&quot;forced-color-adjust: none; color: rgb(204, 204, 204);&quot;&gt;&amp;nbsp;- &lt;/span&gt;&lt;span style=&quot;forced-color-adjust: none; color: rgb(206, 145, 120);&quot;&gt;docker build&lt;/span&gt;&lt;/div&gt;&lt;div style=&quot;forced-color-adjust: none;&quot;&gt;&lt;span style=&quot;forced-color-adjust: none; color: rgb(204, 204, 204);&quot;&gt;&amp;nbsp;- &lt;/span&gt;&lt;span style=&quot;forced-color-adjust: none; color: rgb(206, 145, 120);&quot;&gt;docker tag&lt;/span&gt;&lt;/div&gt;&lt;div style=&quot;forced-color-adjust: none;&quot;&gt;&lt;span style=&quot;forced-color-adjust: none; color: rgb(204, 204, 204);&quot;&gt;&amp;nbsp;- &lt;/span&gt;&lt;span style=&quot;forced-color-adjust: none; color: rgb(206, 145, 120);&quot;&gt;docker pus&lt;/span&gt;&lt;/div&gt;&lt;/div&gt;" style="text;whiteSpace=wrap;html=1;" parent="1" vertex="1">
          <mxGeometry x="1210" y="1006" width="130" height="80" as="geometry" />
        </mxCell>
        <mxCell id="fz_pyWFYt5tnEP6ohB9D-44" style="edgeStyle=orthogonalEdgeStyle;rounded=0;orthogonalLoop=1;jettySize=auto;html=1;fontColor=#66B2FF;strokeColor=#66B2FF;strokeWidth=2;" parent="1" source="fz_pyWFYt5tnEP6ohB9D-36" target="fz_pyWFYt5tnEP6ohB9D-38" edge="1">
          <mxGeometry relative="1" as="geometry" />
        </mxCell>
        <mxCell id="fz_pyWFYt5tnEP6ohB9D-36" value="&lt;font style=&quot;font-size: 22px;&quot;&gt;build-app_dash&lt;/font&gt;" style="rounded=1;whiteSpace=wrap;html=1;verticalAlign=top;fillColor=#0050ef;strokeColor=#001DBC;opacity=20;fontColor=#003366;" parent="1" vertex="1">
          <mxGeometry x="1160" y="1196" width="210" height="200" as="geometry" />
        </mxCell>
        <mxCell id="fz_pyWFYt5tnEP6ohB9D-37" value="&lt;div style=&quot;forced-color-adjust: none; color: rgb(204, 204, 204); background-color: rgb(31, 31, 31); font-family: Consolas, &amp;quot;Courier New&amp;quot;, monospace; font-weight: normal; font-size: 14px; line-height: 19px; white-space: pre;&quot;&gt;&lt;div style=&quot;forced-color-adjust: none;&quot;&gt;&lt;span style=&quot;forced-color-adjust: none; color: rgb(204, 204, 204);&quot;&gt;&amp;nbsp;- &lt;/span&gt;&lt;span style=&quot;forced-color-adjust: none; color: rgb(206, 145, 120);&quot;&gt;docker build&lt;/span&gt;&lt;/div&gt;&lt;div style=&quot;forced-color-adjust: none;&quot;&gt;&lt;span style=&quot;forced-color-adjust: none; color: rgb(204, 204, 204);&quot;&gt;&amp;nbsp;- &lt;/span&gt;&lt;span style=&quot;forced-color-adjust: none; color: rgb(206, 145, 120);&quot;&gt;docker tag&lt;/span&gt;&lt;/div&gt;&lt;div style=&quot;forced-color-adjust: none;&quot;&gt;&lt;span style=&quot;forced-color-adjust: none; color: rgb(204, 204, 204);&quot;&gt;&amp;nbsp;- &lt;/span&gt;&lt;span style=&quot;forced-color-adjust: none; color: rgb(206, 145, 120);&quot;&gt;docker pus&lt;/span&gt;&lt;/div&gt;&lt;/div&gt;" style="text;whiteSpace=wrap;html=1;" parent="1" vertex="1">
          <mxGeometry x="1210" y="1281" width="130" height="80" as="geometry" />
        </mxCell>
        <mxCell id="fz_pyWFYt5tnEP6ohB9D-107" style="edgeStyle=orthogonalEdgeStyle;rounded=0;orthogonalLoop=1;jettySize=auto;html=1;entryX=0;entryY=0.5;entryDx=0;entryDy=0;curved=1;strokeColor=#66B2FF;strokeWidth=2;" parent="1" source="fz_pyWFYt5tnEP6ohB9D-38" target="fz_pyWFYt5tnEP6ohB9D-53" edge="1">
          <mxGeometry relative="1" as="geometry" />
        </mxCell>
        <mxCell id="fz_pyWFYt5tnEP6ohB9D-38" value="&lt;font style=&quot;font-size: 22px;&quot;&gt;build-app&lt;/font&gt;" style="rounded=1;whiteSpace=wrap;html=1;verticalAlign=top;fillColor=#0050ef;strokeColor=#001DBC;opacity=20;fontColor=#003366;" parent="1" vertex="1">
          <mxGeometry x="1160" y="1446" width="210" height="200" as="geometry" />
        </mxCell>
        <mxCell id="fz_pyWFYt5tnEP6ohB9D-39" value="&lt;div style=&quot;forced-color-adjust: none; color: rgb(204, 204, 204); background-color: rgb(31, 31, 31); font-family: Consolas, &amp;quot;Courier New&amp;quot;, monospace; font-weight: normal; font-size: 14px; line-height: 19px; white-space: pre;&quot;&gt;&lt;div style=&quot;forced-color-adjust: none;&quot;&gt;&lt;span style=&quot;forced-color-adjust: none; color: rgb(204, 204, 204);&quot;&gt;&amp;nbsp;- &lt;/span&gt;&lt;span style=&quot;forced-color-adjust: none; color: rgb(206, 145, 120);&quot;&gt;docker build&lt;/span&gt;&lt;/div&gt;&lt;div style=&quot;forced-color-adjust: none;&quot;&gt;&lt;span style=&quot;forced-color-adjust: none; color: rgb(204, 204, 204);&quot;&gt;&amp;nbsp;- &lt;/span&gt;&lt;span style=&quot;forced-color-adjust: none; color: rgb(206, 145, 120);&quot;&gt;docker tag&lt;/span&gt;&lt;/div&gt;&lt;div style=&quot;forced-color-adjust: none;&quot;&gt;&lt;span style=&quot;forced-color-adjust: none; color: rgb(204, 204, 204);&quot;&gt;&amp;nbsp;- &lt;/span&gt;&lt;span style=&quot;forced-color-adjust: none; color: rgb(206, 145, 120);&quot;&gt;docker pus&lt;/span&gt;&lt;/div&gt;&lt;/div&gt;" style="text;whiteSpace=wrap;html=1;" parent="1" vertex="1">
          <mxGeometry x="1210" y="1516" width="130" height="80" as="geometry" />
        </mxCell>
        <mxCell id="fz_pyWFYt5tnEP6ohB9D-52" value="" style="shape=image;verticalLabelPosition=bottom;labelBackgroundColor=default;verticalAlign=top;aspect=fixed;imageAspect=0;image=data:image/png,iVBORw0KGgoAAAANSUhEUgAAAUYAAAEBCAYAAAAEigwkAAAAAXNSR0IArs4c6QAAAARnQU1BAACxjwv8YQUAAAAJcEhZcwAAJOgAACToAYJjBRwAAD0rSURBVHhe7Z0HfM3X+8cfIragalSDUkKpon61ldijtSmq9h6JFTNmQkhI7apZozGCGhWSSCKx1QhFErMISVB7BvE/nyffm9x8XzfJjZG/yvPu6/5u7nm+3/M94zmfc55zvv01Xa68n74iQRAEIY702rcgCIKgIcIoCIKgQ4RREARBhwijIAiCDhFGQRAEHSKMgiAIOkQYBUEQdIgwCoIg6BBhFARB0CHCKAiCoEOEURAEQcdrCKMbHboRTndu7KeVDbUkpg9tOafSz62jgVqKIAjCf5E3WDEWpu8nz6P62i9BEIQPhTcLpYs2JueZ1bUfJmg4jtbvO6NWl1hhhlNk6E5ya1U41tZ3Hf2j0v7xX0eHQmPtdy7tp/XDutLiIO2e6xcoeFUfKhJ7h6Iw9ZwfQP9cjb9+y4Q6mk0QBOHt8PrCeOko/fUoE9m0G0dORbW0BFSnxZP7UP0SRCdXuZLDkn10z+pL6jnZmX7SrgA5S9jQvb2baUPgFXqWrTDVH+msVqFHaIOnP51V+Rdp2Jfc2sZeW2TyInJuqzK85K/sO+ive/np2wEzaX2HWLsgCMLb4PWF8cVZ6rXqFD3L9CX1WjDCaFUXj/e8gdSrZy/qPGwOLRnzA3lfUon5CtE3sWbm3l8LqUFPdV3bFXTonkp4cYo8u3SmXgM6UzufKyohLxWpgSurk1PTLynTo6O05FvYe1GDhUfonrJXatUVFwiCILwV3iiUvjzeidaHPqNMFbvSnAFaYhz71Iryf9R78mIKRtirPj+pxV6yPLpHlyGgissvnsX+wdShIp+or2wVaZiW353J1SknTBaZ8L+CIAhvhTfbY1TiZzdlhxIwK/p2UHsqoKXG0ofmTO9K3+SJog3DfqDy+axp1TnN9FpYUeYM6uv2Ppo5QK0wjT6D3HfEXiIIgvAWeENhVHgPJAcvFfJ+VIJsePlmoDgVwO8rR1TIvY8uU2HKAmF7bVQeN9TXR4WoyI3NtMEz9nPvJdHJvQi5BUEQ3g5vLowK355zyReilYD79BSRcOF65LNkHq3ctoW+N3lIoyNnPrLR/kzIZprnfY6eKYFtsySA1s9Hnvtp1cKZtHJqRe0aQRCEN+etCCPRGmo3bx/h7CQeJ+o8zV+F2Xnpm2Yt6PsSUXQo+L5Kz09F+sZekVKChnUhR89zdC9zCarfVuVZMRdd9vuNnMcc1a4QBEF4c+S/EigIgqDjLa0YBUEQPhxEGAVBEHSIMAqCIOgQYRQEQdAhwigIgqBDhFEQBEGHCKMgCIIOEUZBEAQdIoyCIAg6RBgFQRB0iDAKgiDoEGEUBEHQIcIoCIKgQ4RREARBhwijIAiCDhFGQRAEHSKMgiAIOkQYBUEQdIgwCoIg6BBhFARB0CHCKAiCoEOEURAEQUfcfz7VtkYlThAEQUjryH9XWhAEQYeE0oIgCDpEGAVBEHSIMAqCIOgQYRQEQdAhwigIgqBDhFEQBEGHCKMgCIIOEUZBEAQdIoyCIAg6RBgFQRB0iDAKgiDoEGEUBEHQIcIoCIKgQ4RREARBhwijIAiCDhFGQRAEHSKMgiAIOkQYBUEQdKSqMA4dPIg/YMzI4XT1Yih/g80b19KZE0fo25rV+bfwYfBD29Z0PvRkXD+nJsb+ZgqUDT4452c3/l2jelVydXHi77RKvbq2dHjfbroddZUO7vHXUtMeqSqMLZt/T506tqevK5TTUoQPAe/tm3liextgML6tAZlSf6tapTJ1bN+OmjZupKWkPbp3+Yny5ctH4yc5U3+7IVpq2iNVhbGmbQP6ulJ1Onb8hJYi/Ndp07oFFS5UiAKD9mop7w8p9Te3mbPIumhJGu04QUtJe2TNlpUiIyNp3oJf0/Q4TZEwYvYNOXmUl9mXzp4mfx8vunIhhEMSgJneeOWgD5dTshpAOIP8b17/h5+HMBvPB6bCM+NQ3GD32rqRrl8+x/ej3IPtBsSFCVHhl2jNquWUPXt2LQeiGdOn0OXzIXTnRjjXz3H0CM1CVLKkDfl4baFbEZf5Xj/v7XTtn7NxYRjy+XnG9Lj78Y38jIE9/FIY2/E9290t7vkIYQ7tDeD88UE5mzRqyDbU80LY37wyw7NRfthRH0N/oJ7I30BS7QfQD747t9Hh/YEm70/ObqBWzRr06PFj2vanF//Wt1OfXj3IIr0F2wDsqIdxubp37RwX1sKOD/42+FVimFNHg78ZfMJ3x1Yul6kVril/TaoN0Hcrly9O4GOoi4GRDkPpYtgptkVevUDrfl9BBQt+olkTZ0C/3nH9irqhvdAmwJRv/33sELVr04rtAOUO8veOywO+Nn2qk2ZNHNyH/sSz4KMG34Yf7t3tG+ebewJ82F8N4D7Yz4WciBuD+jKgrPB3jDljHzbO533CbGH8X8WvafhQO3oW/YzshjjQNLeZ9EmB/JQuXTrtirfLpPGOlD9fXuozwJ4aNGlOd+7eJbuB/aj458W0K5ImU8aM9HGePGQ31IFXAJYZLWnUiGF09vx5atq8Df253Ytq1qhGPTRHHj92FLVt3YpWrvag2vUa08FDh9nJu/zUke0THUdT6S9K0S+/LqFuPfvS8+fRlCVLFraBUWoQtGvTkv702kFVatahXX7+PEidJ41n+8D+fah1y2bk7bOL7fhu06o59erRle2jRwzngda7vx1/smXLpgbWkDjhxO9Xr15Rlx69yX3WXLK2/pQchtrTTpUP6nP0WDA1/74ptWj2HV9vTvuVLVOa9u0/yPcHnziZ4H6QnB15Vf7mfxQcfILOX7jIaWinkjY25OY+m8sarfwlS9b4dsJkY1OiBE1ydqFmrdrR3Xv3lMD3pwsXL1GhYqUoLOwsf/D3Os+N2l2mSamPwCewup05aw63oTkk1Qburi5Uo1pVmjp9Btflang4DR9ix8LwXZNG3LenTp8h2/pNaPHS39jfYE8K3DfEfiCdO3+Bqn5blxwnTOb2cjC6z9i3HUY5UoYMGdTYtE9Q7yKFC9Nqj7XUtn0nLkPH9m2pR7cumtU08MvAPXu5/XPns+ZxDpGcPNGRfd3gmx/lzk3TpkyOE2uAZwcEBNGosePjVprGZQg7e45+7NCOin5WhHr1HUCTVf8jZEfo/j5itjA2qFeH8nz0Ea333MSV/XXxMvJVg/9dADGYPXc+9Rs0mDb9sYWOHD2mBv5xNQjyUfnyX2lXJU308+e0Va1iNmzczGU9cyaU7t65S0uXraQDBw+Rzy5/FprPPy/Kz2vcqAGFhoXRuIlOdOLk37RCCeSLly+ofLly7OjlvipLR1QZYPfa6U3LV6ymR48e8bNwf906tVkcRo4Zz45lP2wkOwPSYbfKkYNevozhPGD/ZdFSWr/hD4qKusF5ZFPicT0ignx8/bjOi5Ysp/0HDlGB/PnYjmet9lhHO719adbcBRQefo2uXbvO5UF98LG0zMDibW77oZ5Dho/ke/fuO6AGmAXZ2JTQrMnbsReXM1dO8t8dxL8N7YRJZbqbO5cVZTa0E8iRIzsLmK9fAOeJkM3PP1Czms/r+MiLFy9Vm28i1xk/U9CefVpq0iTWBqgrVqwBgUFcB9g8la9lzpyZqlSuxBMZVspnQkJj/WnV7+rjQZcvX9VyNs055UMjRo8jh9GO7Cfw3aioKPpC9asBY99eunwF7fD24UWKbe1a2hWx5Z4yzY38AgJpiboGda9WtbJmNZ/WLZpR3o8/5jGPdsYH+SENNgN4Xu/+g7hcDx8+jEszlMHPfzc9ffpULRx28jXwYYTsxYp+xte+b5gtjAVUwwPM7O8aNCwG08RxYzmUwLL+px87UPr06RKEZUkB0YuJidF+EcW8iuHfL2NeainxYHM+p5UVVVKrHzwLHyz50fkWFumV0xXgAX3limmnNtwPYTQ4Bb4hXEiHfe/+A3Tz1i2aMG4Mhxnt27WmhYuXksfa9Xz9nn37qeyXZSj4yH7auP53tZK6yytdw0oM9XmuBgRA3qgLPobnGWNu+z1RjmoMVv8ZLMy3Y6BFRkaxowO0U9asWenK1fh2QplRdgMQJEywPtu3cIiYO3cuFncIW0owt47GoO+fPHmi/TKPxNrA4BOtlDgYfMbVxYkFEXaI9Nlz59QqrTMdPbSXHIYNpu07dtLseQu0nEwDMSysooHNnms43ES+WJlZpI8fqnrfxgoNYpn34zxaSqy/G9jpvYtu3rxJefJ8pKWYD8Y9osSQ0DAthejSpX/UJP8yThOAvp2AcRlQXn2532dStMeYWmBZPnniOA6TsJzHsn7V72s067tjx04ffpbxB89/XTJlzqT9FSsIdRo0Jacp0+jGzVsctm/dtC5uHw0hURsVcnjt8OZwz9VlCovz65Aa7Ye9oS9VmIl6mRLnxEAI26Bpc1q7fgOL6Lixo+gPT48EYaA5/H/5iDGIAJYs+y2Bv+S3LsqhNSa0hk1b0PCRY1jsEDl4rFyW5OtDAFs3g+0G8v31Gn3HeeL+pECYmz5d4kMZUYeFCrffFhlUZGJhNEF+iJgtjOFq9QNHSG7zOKkOMhc8I3euXGoJvpvWrPPkNOyjGIOZO73RLPomXL8eQQ/V6qN48c8TDFDD31euhtP9+w84TDMFZux79+/z9QjxAL6xD4R02O0H9qexoxx4bxH7UcNGjqaMlhmperUqvH+LTX0IIgb5N1W/pd0qRENYipAtpZjTfm9K9WpVeQWAPSkDESo0evz4MdfDgKWlJfcVQPu4OE+iRvXr0cgx4/jU2GPNOipRvDhV/LoCX2MuqVHHpPj39m1eSZUp/YWWEtvnhvGB137Qp6fPhFLHzt2p/Y9deT81uf78tGBB3sJB6Aq/QZ7J+XnhQtZ8zc1b/2opCYFfY3X777+3tRTzQUSQKWMm+qJUSS2FqJC1NX/D9qFitrL4BwRyeNehXRs+AevTqzvVr1tHs8YSeeMGlS5dim14jQOb1BlVo6YUrECePnumQrUq1OGHtiwojRs20KyxA/DZ02c8C9e1rcX2CuVe/91IzM6BQXt4sxih7mdFCvOJ4vYtG3kjHPtLJ/8+xXtHeBZO6bp16cRhE0B5sYeC/RIntYpB6OM2zZlsShTndNitrQtS504dqF+fnjx4UN7MakX56NFjzsO2dk0aPKg/1wd7VygD2iAlqzEDybXf28C2Vk016ENol1+AlhK7Ksa+EtoJ7deoYX0+wDK0U2TUDapc6Rvq27sHh71oJxwsIMRFWAywmoYY4BDCeHNfT2rUMSlQ72PHgqlC+XI003Uq9xf63tdrK0cB+dRKFodr9qpP0d/VVTmtcljRgwdJ9+f9Bw/4cAXvYKL9Fs6fRUV1+3CwY2yhjVq1bM7hfPi1axSwO36vFv6FPsDk2r9PL56Eg4wmMXPZuHkrbwFh3Bueh1Ut0mD7UDFbGLEHNMN9jpp5cqjOmk2jHIZRlBJCY7AJffv2HV4VzJs1U9sXi9as5oOZEiFXNhVqzZ/jTj27d6WQ0FCKiXlFVlZWPABxOFKsaFHyXLuaT9swg78Jk5yncXiHAX/8r/1qhdeP383DaSKY6OxCYWfPslAuX7KQBR+byQamubnTps3bVIjcgvcQIZ5r12/kdID8t3t586A5HfwXCysOILA5jbadOm0GpVOz/jqPlSrEXs9hONoAbZFSkmu/NwWTHlbPBw//paXEY2gnnJivWLqI0548jt3Xg5iNn+SkJrYocndzoQNBfmRjU5xP+rEpD3arCQo+tmTRAj4BTox3XUdzGKbCZPjijx1+YJ+BWG3Ztp1P02fNma9C+7UsiKeOH6YxSrgxkTi7uGp3mwZjaMOmLbyyROhdqmRJuqAmbkslhoYIBvuJD9WEuuiXubRk4Ty1co2m2XMXxO1Hg4iICD7xDfD1YnHEXjYOf1IKwvjxE53579+W/kqLFsxR/fiI05IL8f/LpMuV99P4nfFkwMyHkNKwilmqnLeqWh30HWjPDvIhg1WMlVUODrtBrx7d+H23xUuX855SWgKD8auyX3KIaDwY3zZoX/tBA9QkZKmlxBId/ZxPpP+r7Y53KPG+oJ6IiMhkxxIm1ilOE2jZ8pWJ1h8TM6K3Fq3j3+k0AJuplThEDq/rCLGYLYz416UwM58JCSGnqa4qjLal4UPsKfjkSZMd8KHhuWYV7+U4TZ3Oe0WuLs6UK2fONDEpCO8PbyqMgnmYHUpjnw3vTFWsUIFDoAmOo/l1BGclkmkBvGbxSIWECKMR6kIUZ/w8R0RRED5AUhRKC4IgpAXezvsugiAIHxAijIIgCDpEGAVBEHSIMAqCIOgQYRQEQdAhwigIgqBDhFEQBEGHCKMgCIIOEUZBEAQdIoyCIAg6RBgFQRB0iDAKgiDoEGEUBEHQIcIoCIKgQ4RREARBhwijIAiCDhFGQRAEHXH/D96FylTkBEEQhLSO/KcNBEEQdEgoLQiCoEOEURAEQYcIoyAIgg4RRkEQBB0ijIIgCDpEGAVBEHSIMAqCIOgQYRQEQdAhwigIgqBDhFEQBEGHCKMgCIIOEUZBEAQdIoyCIAg6RBgFQRB0iDAKgiDoEGEUBEHQIcIoCIKgQ4RREARBR6oK49DBg/gDxowcTlcvhvI32LxxLZ05cYS+rVmdfwsfBj+0bU3nQ0/G9XNqYuxvpkDZ4INzfnbj3zWqVyVXFyf+FmLBuDy4x1/79Wa8zbzeNakqjC2bf0+dOranryuU01KEDwHv7ZvZ6d8GGDhva/Ck1N+qVqlMHdu3o6aNG2kpQlolVYWxpm0D+rpSdTp2/ISWIvzXadO6BRUuVIgCg/ZqKe8PKfU3t5mzyLpoSRrtOEFLEdIqKRJGzL4hJ4/S7airdOnsafL38aIrF0I4JAGY6Y1XDvpwOSWrAYQzyP/m9X/4eQiz8XxgKjwzDsUNdq+tG+n65XN8P8o92G4AHd63m39HhV+iNauWU/bs2bUciGZMn0KXz4fQnRvhXD/H0SM0C1HJkjbk47WFbkVc5nv9vLfTtX/OxoVhyOfnGdPj7sc38jMG9vBLYWzH92x3t7jn16trS4f2BnD++KCcTRo1ZBvqeSHsb16Z4dkoP+yoj6E/UE/kbyCp9gPoB9+d2+jw/kCT9ydnN1CrZg169PgxbfvTi3/r26lPrx5kkd6CbQB21MO4XN27do4La2HHB38b/CoxzKmjwd8MPuG7YyuXy9QK15S/JtUG6LuVyxcn8DHUxcBIh6F0MewU2yKvXqB1v6+gggU/0ayJM6Bf77h+Rd3QXmgTYMq3/z52iNq1acV2gHIH+XvH5QFfmz7VSbMmDcoM38d9YaeOU4F8+TRLLEmVDSRXZ8uMGbkPDP6hH4PvC2YL4/8qfk3Dh9rRs+hnZDfEgaa5zaRPCuSndOnSaVe8XSaNd6T8+fJSnwH21KBJc7pz9y7ZDexHxT8vpl2RNJlUB3ycJw/ZDXXgFYBlRksaNWIYnT1/npo2b0N/bveimjWqUQ/NkcePHUVtW7eilas9qHa9xnTw0GF28i4/dWT7RMfRVPqLUvTLr0uoW8++9Px5NGXJkoVtYJRyiHZtWtKfXjuoSs06tMvPnwep86TxbB/Yvw+1btmMvH12sR3fbVo1p149urJ99Ijh7CC9+9vxJ1u2bMrJhsQ5DX6/evWKuvToTe6z5pK19afkMNSedqp8UJ+jx4Kp+fdNqUWz7/h6c9qvbJnStG//Qb4/+MTJBPeD5OzIq/I3/6Pg4BN0/sJFTkM7lbSxITf32VzWaOUvWbLGtxMmG5sSJWiSsws1a9WO7t67pwS+P124eIkKFStFYWFn+YO/13lu1O4yTUp9BD6B1e3MWXO4Dc0hqTZwd3WhGtWq0tTpM7guV8PDafgQO56cv2vSiPv21OkzZFu/CS1e+hv7G+xJgfuG2A+kc+cvUNVv65LjhMncXg5G9xn7tsMoR8qQIYMam/YJ6l2kcGFa7bGW2rbvxGXo2L4t9ejWRbOaplXL5tS7ZzcKO3uW78NY+OSTeFFLrmzm1LlI4UIUdeMGfd+yHXnt9Oa2MozB9wmzhbFBvTqU56OPaL3nJm7wXxcvI181+N8FEIPZc+dTv0GDadMfW+jI0WNq4B9XgyAflS//lXZV0kQ/f05b1Spmw8bNXNYzZ0Lp7p27tHTZSjpw8BD57PJnofn886L8vMaNGlBoWBiNm+hEJ07+TSuUU7x4+YLKlyvHnVfuq7J0RJUBdnTo8hWr6dGjR/ws3F+3Tm0Wh5FjxvPAth82UjnYOU6H3SpHDnr5MobzgP2XRUtp/YY/KCrqBueRTYnH9YgI8vH14zovWrKc9h84RAXyx87YeNZqj3W009uXZs1dQOHh1+jatetcHtQHH0vLDCze5rYf6jlk+Ei+d+++A2qAWZCNTQnNmrwde3E5c+Uk/91B/NvQTphUpru5c1lRZkM7gRw5srOA+foFcJ7zFvxKfv6BmtV8XsdHXrx4qdp8E7nO+JmC9uzTUpMmsTZAXbFiDQgM4jrA5ql8LXPmzFSlciWeyLBSPhMSGutPq35XHw+6fPmqlrNpzikfGjF6HDmMdmQ/ge9GRUXRF6pfDRj79tLlK2iHtw8vUmxr19KuiC33lGlu5BcQSEvUNah7taqVNatpbGvVpHTqH1yP+3A/8jGQXNnMqfPlK1dp4uSp3J7wj5cvX9JnnxXRrO8PZgtjAdXwADP7u+bhw4c8mCaOG8vLdYSeP/3YgdKnT5cgLEsKiF5MTIz2iyjmVQz/fhnzUkuJB5vzOa2sqJJa/eBZ+GCJn/fjj8nCIr1yugI8oK+oTjWF4X4II8oO8A3hQjrse/cfoJu3btGEcWM41GnfrjUtXLyUPNau5+v37NtPZb8sQ8FH9tPG9b+rldRdXukaVmKoz3M1IADyRl3wMTzPGHPb78nTp9pfsWD1n8HCfDsGWmRkFA9SgHbKmjUrXbka304oM8puAIKECdZn+xYOw3LnzsXiDmFLCebW0Rj0/ZMnT7Rf5pFYGxh8olWLZnE+4+rixOIAO0T67LlzapXWmY4e2ksOwwbT9h07afa8BVpOpoHgFFbRwGbPNRyOIl+Eqhbp44eq3rexhwqxzPtxHi0l1t8N7PTeRTdv3qQ8eT7SUkxTqJA1PXj4gC4ajXHjfJIrmzl1fh4dHefTAO2JMfa+8f6VSIGQYPLEcRwmIWzPnc+aVv2+RrO+O3bs9OFnGX/w/NclU+ZM2l+xglCnQVNymjKNbty8xWH71k3r4vbREBK1UeGL1w5vDvdcXaawOL8OqdF+2BP9UoWZqJcpcU4MhLANmjantes3sIiOGzuK/vD0SDT8TYz/Lx8xBhHAkmW/JfCX/NZFObTG4G/YtAUNHzmGBQWRg8fKZUm+PgSwdTPYbiDfX6/Rd5wn7k8KbOmkT5f4UEbUYaHC7TclubK9bp3fR8wWxnC1+oEjJLd5nFQHmQuekTtXLrWc301r1nlyGvZRjMFMk95oFn0Trl+PoIdq9VG8+OcJBqjh7ytXw+n+/QccppkCM/a9+/f5eoR4AN/YB0I67PYD+9PYUQ68t4j9qGEjR1NGy4xUvVoV3r/Fpj4EEYP8m6rf0m4VoiEsRciWUsxpvzelerWqvHIJ3BN/Gh0RGUmPHz/mehiwtLTkvgJoHxfnSdSofj0aOWYcnxp7rFlHJYoXp4pfV+BrzCU16pgU/96+zfvtZUp/oaXE9rlhfOC1H/Tp6TOh1LFzd2r/Y1feT02uPz8tWJC3cLBdBb9Bnsn5eWG10sM1N2/9q6UkBH6N1e2//97WUkxzVfl5juw5qFixolpKwvGcXNlet87vI2Yri39AIId3Hdq14ROwPr26U/26dTRrLJE3blDp0qXYhtc4sEmdMWP8qslcsAJ5+uyZCtWqUIcf2rKgNG7YQLPGDsBnT5/xjFTXthbbK5R7/XcjMdMFBu3hDWuEup8VKcyna9u3bOTNZuyHnPz7FO8d4Vk4Le7WpROHTQDl9fPfTcWKfkZOahWD8MJtmjPZlCjO6bBbWxekzp06UL8+PXnwoLyZ1Yry0aPHnIdt7Zo0eFB/rg/2rlAGtEFKVmMGkmu/twH2o06fCaFdfgFaSuyqGHtLaCe0X6OG9fkAy9BOkVE3qHKlb6hv7x4c9qKdsHmPEBdhMcBqGgMOG/nGp516UqOOSYF6HzsWTBXKl6OZrlO5v9D3vl5bOQrIp1ayOFyzV32K/q6uymmVw4oePEi6P+8/eMCHK3gHE+23cP4sKqr8yhjYMbbQRjgwQTgffu0aBeyO36uFf6EPMLn279OLJ+Ego0nMFAGBe+iV+qdnty7sh5MmjFX1i9+vTa5sr1vn9xGzhRF7QDPc56iZJ4dqkNk0ymEYny4Zg03o27fv8Kpg3qyZ2r5YtGY1H8xGCLmyqVBr/hx36tm9K4WEhlJMzCuysrLiAYjDkWJFi5Ln2tV82oYZ/E2Y5DyNwzsM+ON/7VcrvH78bh5O1sBEZxc+rYNQLl+ykAX/qdH+0zQ3d9q0eZsKkVvwHiLEc+36jZwOkP92L28eNKeD/2JhxQEENrjRtlOnzaB0avZd57FShdjrOQxHG6AtUkpy7femYNLD6vng4b+0lHgM7YQT8xVLF3Hak8ex+3oQs/GTnNTEFkXubi50IMiPbGyK80n/n147+ZrdaoKCjy1ZtIBPgBPjXdfRHIapkBG++GOHH9hnIFZbtm3n0/RZc+ar0H4ti8Op44dpjBJuTCTOLq7a3abBGNqwaQuvshCGlipZki6oiRuvuRgiGOwnPlQT6qJf5tKShfPUyjWaZs9dwBO8gYiICOre5ScK8PViccReNg5CksJw6Ie3CjCu2rdtw/vkBpIr2+vW+X0kXa68n8bvjCcDZgGElIZVzFLlvFXV6qDvQHt2kA8ZrGKsrHJw2A169ejG77stXrqc95TSEhiMX5X9ksMl48H4tkH72g8aoCYhSy0llujo53wi/V9td7xDifc/9URERCY7ljCxTnGaQMuWr0y0/piYEb21aB3/TqcB2EytxLEniNfIhFjMFkb861KYmc+EhJDTVFcVRtvS8CH2FHzypMkO+NDwXLOK93Kcpk7nfRNXF2fKlTNnmpgUhPeHNxVGwTzMDqWxz4Z3pipWqMAh0ATH0Xw076xEMi2AVw4eqZAQYTRCXYjijJ/niCgKwgdIikJpQRCEtIDZK0ZBEIS0ggijIAiCDhFGQRAEHSKMgiAIOkQYBUEQdIgwCoIg6BBhFARB0CHCKAiCoEOEURAEQYcIoyAIgg4RRkEQBB0ijIIgCDpEGAVBEHSIMAqCIOgQYRQEQdAhwigIgqBDhFEQBEFH3P+Dd6EyFTlBEAQhrSP/aQNBEAQdEkoLgiDoEGEUBEHQIcIoCIKgQ4RREARBhwijIAiCDhFGQRAEHSKMgiAIOkQYBUEQdIgwCoIg6BBhFARB0CHCKAiCoEOEURAEQYcIoyAIgg4RRkEQBB0ijIIgCDpEGAVBEHSIMAqCIOgQYRQEQdCRqsI4dPAg/oAxI4fT1Yuh/A02b1xLZ04coW9rVuffwofBD21b0/nQk3H9nJoY+5spUDb44Jyf3fh3jepVydXFib8F88C4PbjHX/uVcrp1+Ykmjh9D2bNn11LeD1JVGFs2/546dWxPX1cop6UIHwLe2zfzAHkbYJC9yUAzJqX+VrVKZerYvh01bdxISxHeNU0aNeA+qv1tDS3l/SBVhbGmbQP6ulJ1Onb8hJYi/Ndp07oFFS5UiAKD9mop7w8p9Te3mbPIumhJGu04QUsR3jVtO/xExUt9RX967dRS3g9SJIxQ9pCTR+l21FW6dPY0+ft40ZULIRySAMz0xisHfbicktUAwhnkf/P6P/w8hNl4PjAVnhmH4ga719aNdP3yOb4f5R5sN4AO79vNv6PCL9GaVcsTLOFnTJ9Cl8+H0J0b4Vw/x9EjNAtRyZI25OO1hW5FXOZ7/by307V/zsaFYcjn5xnT4+7HN/IzBvbwS2Fsx/dsd7e459era0uH9gZw/vignE0aNWQb6nkh7G9emeHZKD/sqI+hP1BP5G8gqfYD6Affndvo8P5Ak/cnZzdQq2YNevT4MW3704t/69upT68eZJHegm0AdtTDuFzdu3aOC2thxwd/G/wqMcypo8HfDD7hu2Mrl8vUCteUvybVBui7lcsXJ/Ax1MXASIehdDHsFNsir16gdb+voIIFP9GsiTOgX++4fkXd0F5oE2DKt/8+dojatWnFdoByB/l7x+UBX5s+1UmzJs1Up4kJyqwfI6gTxgbsYaeOU4F8+TSL6bIlN+6Mxy0w1+/eNWYL4/8qfk3Dh9rRs+hnZDfEgaa5zaRPCuSndOnSaVe8XSaNd6T8+fJSnwH21KBJc7pz9y7ZDexHxT8vpl2RNJkyZqSP8+Qhu6EOvAKwzGhJo0YMo7Pnz1PT5m3oz+1eVLNGNeqhOfL4saOobetWtHK1B9Wu15gOHjrMTt7lp45sn+g4mkp/UYp++XUJdevZl54/j6YsWbKwDYxSDtOuTUs18+2gKjXr0C4/fx6kzpPGs31g/z7UumUz8vbZxXZ8t2nVnHr16Mr20SOGs7P07m/Hn2zZsiknHBLnQPj96tUr6tKjN7nPmkvW1p+Sw1B72qnyQX2OHgum5t83pRbNvuPrzWm/smVK0779B/n+4BMnE9wPkrMjr8rf/I+Cg0/Q+QsXOQ3tVNLGhtzcZ3NZo5W/ZMka306YbGxKlKBJzi7UrFU7unvvnho4/enCxUtUqFgpCgs7yx/8vc5zo3aXaVLqI/AJrG5nzprDbWgOSbWBu6sL1ahWlaZOn8F1uRoeTsOH2PEg/65JI+7bU6fPkG39JrR46W/sb7AnBe4bYj+Qzp2/QFW/rUuOEyZzezkY3Wfs2w6jHClDhgxqbNonqHeRwoVptcdaatu+E5ehY/u21KNbF81qGvhop44/UMDuQPqyQiVauHgpTz7DtGe3atmcevfsRmFnz3K+GCuffJJQ6FM67kyRnN+lBmYLY4N6dSjPRx/Res9N3OC/Ll5GvmrwvwsgBrPnzqd+gwbTpj+20JGjx9TAP64GQT4qX/4r7aqkiX7+nLaqVcyGjZu5rGfOhNLdO3dp6bKVdODgIfLZ5c9C8/nnRfl5jRs1oNCwMBo30YlOnPybVqhOf/HyBZUvV44dvdxXZemIKgPsXju9afmK1fTo0SN+Fu6vW6c2i8PIMeN5YNsPG6kc6Bynw26VIwe9fBnDecD+y6KltH7DHxQVdYPzyKbE43pEBPn4+nGdFy1ZTvsPHKIC+WNnZDxrtcc62untS7PmLqDw8Gt07dp1Lg/qg4+lZQYWb3PbD/UcMnwk37t33wE1wCzIxqaEZk3ejr24nLlykv/uIP5taCdMKtPd3LmsKLOhnUCOHNlZwHz9AjjPeQt+JT//QM1qPq/jIy9evFRtvolcZ/xMQXv2aalJk1gboK4QjYDAIK4DbJ7K1zJnzkxVKlfiiQwr5TMhobH+tOp39fGgy5evajmb5pzyoRGjx5HDaEf2E/huVFQUfaH61YCxby9dvoJ2ePvwIsW2di3tithyT5nmRn4BgbREXYO6V6taWbOaZv+BgzR4+CgaN8mZrl+PIH9174MHD+mrsmXYblurJqVT/yA/5Iv88RxjUjLuEiM5v0sNzBbGAqrhAWb2d83Dhw95ME0cN5ZDCYSeP/3YgdKnT5cgLEsKNH5MTIz2iyjmVQz/fhnzUkuJB5vzOa2sqJJa/eBZ+GC5n/fjj8nCIr1yugI8oK9cMe3UhvshjCg7wDeEC+mw791/gG7eukUTxo3hcKF9u9Y8I3usXc/X79m3n8p+WYaCj+ynjet/VyupuzzjGlZiqM9z5XQAeaMu+BieZ4y57ffk6VPtr1iw+s9gYb4dAy0yMooHAkA7Zc2ala5cjW8nlBllNwBBwgTrs30Lh4i5c+dicYewpQRz62gM+v7JkyfaL/NIrA0MPtGqRbM4n3F1cWJBhB0iffbcObVK60xHD+0lh2GDafuOnTR73gItJ9NADAuraGCz5xoOJZEvwmiL9PFDVe/b2EOFIOX9OI+WEuvvBnZ676KbN29SnjwfaSmmOXvuAkcAewN8+dlbNq5TK8ICagzEtmehQtb04OEDumikAcbPASkZd4mRnN+lBinaY0wtEBJMnjiOwySE7bnzWdOq39do1nfHjp0+/CzjD57/umTKnEn7K1YQ6jRoSk5TptGNm7c4bN+6aV3cPhpCojYqPPHa4c3hnqvLFBbn1yE12g97ol+qkAf1MiXOiYEQtkHT5rR2/QYW0XFjR9Efnh6Jhr+J8f/lI8YgAliy7LcE/pLfuiiH1pjQGjZtQcNHjmGxQ+TgsXJZkq8PAWzdDLYbyPfXa/Qd54n7kwJbOunTJT6UEXVYqHA7OewG9KXOnTpwKI0wvnnrHygiIlKzpi3MFsZwtfqBIyS3eZxUB5kLnpE7Vy61XN9Na9Z5chr2UYzBLJLeaBZ9ExA2PFSrj+LFP08wQA1/X7kaTvfvP+AwzRSYse/dv8/XI8QD+MZeC9Jhtx/Yn8aOcuC9RexHDRs5mjJaZqTq1arw/i02mCGIGOTfVP2WdqsQDWGpYVM6JZjTfm9K9WpVeXUQuCf+NDoiMpIeP37M9TBgaWnJfQXQPi7Ok6hR/Xo0csw4PjX2WLOOShQvThW/rsDXmEtq1DEp/r19m/fby5T+QkuJ7XPD+MBrP+jT0yqU7Ni5O7X/sSvvpybXn58WLMhbONiugt8gz+T8vLBayeGam7f+1VISAr/G6vbff29rKaZBVHhHhb3YRoIYY+Vt/OyrahzkyJ6DihWLD4Pfxnh/HzG7VthvQHjXoV0bPgHr06s71a9bR7PGEnnjBpUuXYpteI0DG6YZM8avmswFK5Cnz56pUK0KdfihLQtK44YNNGvsAHz29BnPwnVta7G9QrnXfzcSs3Ng0B7esEao+1mRwnz6tn3LRt4Ix17Hyb9P8d4RnoXT4m5dOnHYBFBeP//dVKzoZ+SkVjEIfdymOZNNieKcDru1dUGejfv16cmDB+XNrFaUjx495jxsa9ekwYP6c32wd4UyoA1SshozkFz7vQ2w33T6TAjt8gvQUmJXxdgfQjuh/Ro1rM8HWIZ2ioy6QZUrfUN9e/fgsBfthIMFhFkIiwFW0xADHEIYTmJNkRp1TArU+9ixYKpQvhzNdJ3K/YW+9/XaylFAPrWSxeGavepT9Hd1VU6rHFa8Z5cU9x884AMMvIOJ9ls4fxYVVX5lDOwYW2gjHIggnA+/do1XegbgX+gDTK79+/TiSTjIaBIzBXwRWxutW7bg5zsMs+d6GAgI3EOv1D89u3VhP500Yayqv3l7/v81zBZG7AHNcJ+jZp4cqrNm0yiHYRSlhNAYbELfvn2HVwXzZs3U9sWiNav5YKZEyJVNhVrz57hTz+5dKSQ0lGJiXpGVlRUPQMxqxYoWJc+1q/m0DTP4mzDJeRqHdxjwx//ar1Z4/fjdPJwmgonOLnwaB6FcvmQhC/5To72QaW7utGnzNhUit+A9RIjn2vUbOR0g/+1e3jxoTgf/xcKKAwhsYKNtp06bQenU7LzOY6UKsddzGI42QFuklOTa703BpIfV88HDf2kp8RjaCSfmK5Yu4rQnj2P39SBm4yc5qYktitzdXOhAkB/Z2BTnk37De2y71QQFH1uyaAGfRibGu66jOQxTYTJ88ccOP7DPQKy2bNvOp+mz5sxXof1aFsRTxw/TGCXcmEicXVy1u02DMbRh0xZeWSL0LlWyJF1QE7elEkNDBIP9xIdKxBb9MpeWLJynVq7RNHvugrj9aBAREUHdu/xEAb5eLI7Yy8bhT1LAF3cr8WuvFj+LVb6Y0BBNZcmcme2GQ0G8dYBx175tG95H/xBJlyvvp/E748mAmQ8hpWEVs1Q5b1W1Oug70J4d5EMGqxgrqxzsKKBXj278vtvipct5TyktgcH4VdkvOUQ0HoxvG7Sv/aABahKy1FJiiY5+zifS/9V2x7t7eP9TD/bzkhtLmFinOE2gZctXJlp/TMyI3lq0jn+n0wBsplbiCJ3xGpkQi9nCiH9dCjPzmZAQcprqqsJoWxo+xJ6CT5402QEfGp5rVvFejtPU6bxX5OriTLly5kwTk4Lw/vCmwiiYh9mhNPbZ8M5UxQoVOASa4DiaX0dwViKZFsBrFo9USIgwGqEuRHHGz3NEFAXhAyRFobQgCEJa4MM8axcEQXgDRBgFQRB0iDAKgiDoEGEUBEHQIcIoCIKgQ4RREARBhwijIAiCDhFGQRAEHSKMgiAIOkQYBUEQdIgwCoIg6BBhFARB0CHCKAiCoEOEURAEQYcIoyAIgg4RRkEQBB0ijIIgCDri/h+8C5WpyAmCIAhpHflPGwiCIOiQUFoQBEGHCKMgCIIOEUZBEAQdIoyCIAg6RBgFQRB0iDAKgiDoEGEUBEHQIcIoCIKgQ4RREARBhwijIAiCDhFGQRAEHSKMgiAIOkQYBUEQdIgwCoIg6BBhFARB0CHCKAiCoEOEURAEQYcIoyAIgo5UFcahgwfxB4wZOZyuXgzlb7B541o6c+IIfVuzOv8WPgx+aNuazoeejOvn1MTY30yBssEH5/zsxr9rVK9Kri5O/C2kbVJVGFs2/546dWxPX1cop6UIHwLe2zfzxPY2OLjHnz9vg5T6W9Uqlalj+3bUtHEjLUVIq6SqMNa0bUBfV6pOx46f0FKE/zptWregwoUKUWDQXi3l/SGl/uY2cxZZFy1Jox0naClCWiVFwojZN+TkUboddZUunT1N/j5edOVCCIckADO98cpBHy6nZDWAcAb537z+Dz8PYTaeD0yFZ8ahuMHutXUjXb98ju9HuQfbDaDD+3bz76jwS7Rm1XLKnj27lgPRjOlT6PL5ELpzI5zr5zh6hGYhKlnShny8ttCtiMt8r5/3drr2z9m4MAz5/Dxjetz9+EZ+xsAefimM7fie7e4W9/x6dW3p0N4Azh8flLNJo4ZsQz0vhP3NKzM8G+WHHfUx9AfqifwNJNV+AP3gu3MbHd4faPL+5OwGatWsQY8eP6Ztf3rxb3079enVgyzSW7ANwI56GJere9fOcWEt7Pjgb4NfJYY5dTT4m8EnfHds5XKZWuGa8tek2gB9t3L54gQ+hroYGOkwlC6GnWJb5NULtO73FVSw4CeaNXEG9Osd16+oG9oLbQJM+fbfxw5Ruzat2A5Q7iB/77g84GvTpzppVsEczBbG/1X8moYPtaNn0c/IbogDTXObSZ8UyE/p0qXTrni7TBrvSPnz5aU+A+ypQZPmdOfuXbIb2I+Kf15MuyJpMmXMSB/nyUN2Qx14BWCZ0ZJGjRhGZ8+fp6bN29Cf272oZo1q1ENz5PFjR1Hb1q1o5WoPql2vMR08dJidvMtPHdk+0XE0lf6iFP3y6xLq1rMvPX8eTVmyZGEbGKUGQbs2LelPrx1UpWYd2uXnz4PUedJ4tg/s34dat2xG3j672I7vNq2aU68eXdk+esRwHmi9+9vxJ1u2bGpgDYkTTvx+9eoVdenRm9xnzSVr60/JYag97VT5oD5HjwVT8++bUotm3/H15rRf2TKlad/+g3x/8ImTCe4HydmRV+Vv/kfBwSfo/IWLnIZ2KmljQ27us7ms0cpfsmSNbydMNjYlStAkZxdq1qod3b13Twl8f7pw8RIVKlaKwsLO8gd/r/PcqN1lmpT6CHwCq9uZs+ZwG5pDUm3g7upCNapVpanTZ3BdroaH0/Ahdjw5f9ekEfftqdNnyLZ+E1q89Df2N9iTAvcNsR9I585foKrf1iXHCZO5vRyM7jP2bYdRjpQhQwY1Nu0T1LtI4cK02mMttW3ficvQsX1b6tGti2YVksNsYWxQrw7l+egjWu+5iRv818XLyFcN/ncBxGD23PnUb9Bg2vTHFjpy9Jga+MfVIMhH5ct/pV2VNNHPn9NWtYrZsHEzl/XMmVC6e+cuLV22kg4cPEQ+u/xZaD7/vCg/r3GjBhQaFkbjJjrRiZN/0wolkC9evqDy5cqxo5f7qiwdUWWA3WunNy1fsZoePXrEz8L9devUZnEYOWY8D2z7YSMp7Ow5TofdKkcOevkyhvOA/ZdFS2n9hj8oKuoG55FNicf1iAjy8fXjOi9aspz2HzhEBfLnYzuetdpjHe309qVZcxdQePg1unbtOpcH9cHH0jIDi7e57Yd6Dhk+ku/du++AGmAWZGNTQrMmb8deXM5cOcl/dxD/NrQTJpXpbu5cVpTZ0E4gR47sLGC+fgGc57wFv5Kff6BmNZ/X8ZEXL16qNt9ErjN+pqA9+7TUpEmsDVBXrFgDAoO4DrB5Kl/LnDkzValciScyrJTPhITG+tOq39XHgy5fvqrlbJpzyodGjB5HDqMd2U/gu1FRUfSF6lcDxr69dPkK2uHtw4sU29q1tCtiyz1lmhv5BQTSEnUN6l6tamXNKiSH2cJYQDU8wMz+rnn48CEPponjxnIogdDzpx87UPr06RKEZUkB0YuJidF+EcW8iuHfL2NeainxYHM+p5UVVVKrHzwLH4TZeT/+mCws0iunK8AD+soV005tuB/CiLIDfEO4kA773v0H6OatWzRh3BgOddq3a00LFy8lj7Xr+fo9+/ZT2S/LUPCR/bRx/e9qJXWXV7qGlRjq81wNCIC8URd8DM8zxtz2e/L0qfZXLFj9Z7Aw346BFhkZxYMUoJ2yZs1KV67GtxPKjLIbgCBhgvXZvoVDxNy5c7G4Q9hSgrl1NAZ9/+TJE+2XeSTWBgafaNWiWZzPuLo4sSDCDpE+e+6cWqV1pqOH9pLDsMG0fcdOmj1vgZaTaSCGhVU0sNlzDYfByBdhtEX6+KGq923soUIs836cR0uJ9XcDO7130c2bNylPno+0FCE5UrTHmFogJJg8cRyHSQjbc+ezplW/r9Gs744dO334WcYfPP91yZQ5k/ZXrCDUadCUnKZMoxs3b3HYvnXTurh9NIREbVTY47XDm8M9V5cpLM6vQ2q0H/ZEv1RhJuplSpwTAyFsg6bNae36DSyi48aOoj88PRINfxPj/8tHjEEEsGTZbwn8Jb91UQ6tMaE1bNqCho8cw2KHyMFj5bIkXx8C2LoZbDeQ76/X6DvOE/cnBbZ00qdLfCgj6rBQ4bZgPmYLY7ha/cARkts8TqqDzAXPyJ0rlwoDdtOadZ6chn0UYzBzpzeaRd+E69cj6KFafRQv/nmCAWr4+8rVcLp//wGHaabAjH3v/n2+HiEewDf2gZAOu/3A/jR2lAPvLWI/atjI0ZTRMiNVr1aF92+xqQ9BxCD/puq3tFuFaAhLEbKlFHPa702pXq0qr1wC98SfRkdERtLjx4+5HgYsLS25rwDax8V5EjWqX49GjhnHp8Yea9ZRieLFqeLXFfgac0mNOibFv7dv8357mdJfaCmxfW4YH3jtB316+kwodezcndr/2JX3U5Prz08LFuQtHGxXwW+QZ3J+XriQNV9z89a/WkpC4NdY3f77720tRUgOs5XFPyCQw7sO7drwCVifXt2pft06mjWWyBs3qHTpUmzDaxzYpM6YMX7VZC5YgTx99kyFalWoww9tWVAaN2ygWWMH4LOnz3gWrmtbi+0Vyr3+u5GYnQOD9vCGNULdz4oU5hPF7Vs28kY49pdO/n2K947wLJwWd+vSicMmgPL6+e+mYkU/Iye1ikHo4zbNmWxKFOd02K2tC1LnTh2oX5+ePHhQ3sxqRfno0WPOw7Z2TRo8qD/XB3tXKAPaICWrMQPJtd/bwLZWTTXoQ2iXX4CWErsqxt4W2gnt16hhfT7AMrRTZNQNqlzpG+rbuweHvWgnHCwgxEVYDLCahhjgEMJwEmuK1KhjUqDex44FU4Xy5Wim61TuL/S9r9dWjgLyqZUsDtfsVZ+iv6urclrlsKIHD5Luz/sPHvDhCt7BRPstnD+Liiq/MgZ2jC20UauWzTmcD792jQJ2x+/Vwr/QB5hc+/fpxZNwkNEkJiSN2cKIPaAZ7nPUzJNDddZsGuUwjKKUEBqDTejbt+/wqmDerJnavli0ZjUfzJQIubKpUGv+HHfq2b0rhYSGUkzMK7KysuIBiMORYkWLkufa1Xzahhn8TZjkPI3DOwz443/tVyu8fvxuHk4TwURnFwo7e5aFcvmShSz4T432n6a5udOmzdtUiNyC9xAhnmvXb+R0gPy3e3nzoDkd/BcLKw4gsEGOtp06bQalU7P+Oo+VKsRez2E42gBtkVKSa783BZMeVs8HD/+lpcRjaCecmK9YuojTnjyO3deDmI2f5KQmtihyd3OhA0F+ZGNTnE/6//TaydfsVhMUfGzJogV8ApwY77qO5jBMhcnwxR87/MA+A7Hasm07n6bPmjNfhfZrWRBPHT9MY5RwYyJxdnHV7jYNxtCGTVt4ZYnQu1TJknRBTdyWSgwNEQz2Ex+qCXXRL3NpycJ5auUaTbPnLojbjwYRERHUvctPFODrxeKIvWwc/gjmkS5X3k/jd8aTATMfQkrDKmapct6qanXQd6A9O8iHDFYxVlY5OOwGvXp04/fdFi9dzntKaQkMxq/KfskhovFgfNugfe0HDVCTkKWWEkt09HM+kf6vtjveocT7n3oiIiKTHUuYWKc4TaBly1cmWn9MzIjeWrSOf6dTSBlmCyP+dSnMzGdCQshpqqsKo21p+BB7Cj55Mk10gOeaVbyX4zR1Ou8Vubo4U66cOdPEpCC8P4gwpg5mh9LYZ8M7UxUrVOAQaILjaH4dwVmJZFoAr1k8UiEhwmiEuhDFGT/PEVEUhA+QFIXSgiAIaYG3876LIAjCB4QIoyAIgg4RRkEQBB0ijIIgCDpEGAVBEHSIMAqCIOgQYRQEQdAhwigIgqBDhFEQBEGHCKMgCIIOEUZBEAQdIoyCIAg6RBgFQRB0iDAKgiDoEGEUBEHQIcIoCIKgQ4RREARBR9z/g3ehMhU5QRAEIa0j/2kDQRAEHRJKC4Ig6BBhFARBSADR/wGrIW3u67VHrQAAAABJRU5ErkJggg==;" parent="1" vertex="1">
          <mxGeometry x="1810" y="1950" width="326" height="257" as="geometry" />
        </mxCell>
        <mxCell id="fz_pyWFYt5tnEP6ohB9D-90" style="edgeStyle=orthogonalEdgeStyle;rounded=0;orthogonalLoop=1;jettySize=auto;html=1;entryX=0;entryY=0.5;entryDx=0;entryDy=0;curved=1;strokeColor=#66B2FF;strokeWidth=2;" parent="1" source="fz_pyWFYt5tnEP6ohB9D-53" target="fz_pyWFYt5tnEP6ohB9D-58" edge="1">
          <mxGeometry relative="1" as="geometry" />
        </mxCell>
        <mxCell id="fz_pyWFYt5tnEP6ohB9D-91" style="edgeStyle=orthogonalEdgeStyle;rounded=0;orthogonalLoop=1;jettySize=auto;html=1;entryX=0;entryY=0.5;entryDx=0;entryDy=0;curved=1;strokeColor=#66B2FF;strokeWidth=2;" parent="1" source="fz_pyWFYt5tnEP6ohB9D-53" target="fz_pyWFYt5tnEP6ohB9D-64" edge="1">
          <mxGeometry relative="1" as="geometry" />
        </mxCell>
        <mxCell id="fz_pyWFYt5tnEP6ohB9D-92" style="edgeStyle=orthogonalEdgeStyle;rounded=0;orthogonalLoop=1;jettySize=auto;html=1;curved=1;strokeColor=#66B2FF;strokeWidth=2;" parent="1" source="fz_pyWFYt5tnEP6ohB9D-53" target="fz_pyWFYt5tnEP6ohB9D-69" edge="1">
          <mxGeometry relative="1" as="geometry" />
        </mxCell>
        <mxCell id="fz_pyWFYt5tnEP6ohB9D-93" style="edgeStyle=orthogonalEdgeStyle;rounded=0;orthogonalLoop=1;jettySize=auto;html=1;entryX=0;entryY=0.5;entryDx=0;entryDy=0;curved=1;strokeColor=#66B2FF;strokeWidth=2;" parent="1" source="fz_pyWFYt5tnEP6ohB9D-53" target="fz_pyWFYt5tnEP6ohB9D-74" edge="1">
          <mxGeometry relative="1" as="geometry" />
        </mxCell>
        <mxCell id="fz_pyWFYt5tnEP6ohB9D-53" value="&lt;font style=&quot;font-size: 22px;&quot;&gt;deploy-dev-mongo&lt;/font&gt;" style="rounded=1;whiteSpace=wrap;html=1;verticalAlign=top;fillColor=#0050ef;strokeColor=#001DBC;opacity=20;fontColor=#003366;" parent="1" vertex="1">
          <mxGeometry x="1800" y="868.26" width="340" height="200" as="geometry" />
        </mxCell>
        <mxCell id="fz_pyWFYt5tnEP6ohB9D-54" value="&lt;div style=&quot;forced-color-adjust: none; color: rgb(204, 204, 204); background-color: rgb(31, 31, 31); font-family: Consolas, &amp;quot;Courier New&amp;quot;, monospace; font-weight: normal; font-size: 14px; line-height: 19px; white-space: pre;&quot;&gt;&lt;div style=&quot;forced-color-adjust: none;&quot;&gt;&lt;span style=&quot;forced-color-adjust: none; color: rgb(204, 204, 204);&quot;&gt;&amp;nbsp;- &lt;/span&gt;&lt;span style=&quot;forced-color-adjust: none; color: rgb(206, 145, 120);&quot;&gt;docker-compose up&lt;/span&gt;&lt;/div&gt;&lt;/div&gt;" style="text;whiteSpace=wrap;html=1;" parent="1" vertex="1">
          <mxGeometry x="1894" y="926.52" width="130" height="40" as="geometry" />
        </mxCell>
        <mxCell id="fz_pyWFYt5tnEP6ohB9D-55" value="Container mongo" style="rounded=1;whiteSpace=wrap;html=1;fontSize=16;" parent="1" vertex="1">
          <mxGeometry x="1880" y="976.52" width="180" height="70" as="geometry" />
        </mxCell>
        <mxCell id="fz_pyWFYt5tnEP6ohB9D-56" value="&lt;font style=&quot;font-size: 22px;&quot;&gt;stop-dev-mongo&lt;/font&gt;" style="rounded=1;whiteSpace=wrap;html=1;verticalAlign=top;fillColor=#0050ef;strokeColor=#001DBC;opacity=20;fontColor=#003366;" parent="1" vertex="1">
          <mxGeometry x="1800" y="1078.26" width="340" height="100" as="geometry" />
        </mxCell>
        <mxCell id="fz_pyWFYt5tnEP6ohB9D-57" value="&lt;div style=&quot;forced-color-adjust: none; color: rgb(204, 204, 204); background-color: rgb(31, 31, 31); font-family: Consolas, &amp;quot;Courier New&amp;quot;, monospace; font-weight: normal; font-size: 14px; line-height: 19px; white-space: pre;&quot;&gt;&lt;div style=&quot;forced-color-adjust: none;&quot;&gt;&lt;span style=&quot;forced-color-adjust: none; color: rgb(204, 204, 204);&quot;&gt;&amp;nbsp;- &lt;/span&gt;&lt;span style=&quot;forced-color-adjust: none; color: rgb(206, 145, 120);&quot;&gt;docker-compose down&lt;/span&gt;&lt;/div&gt;&lt;/div&gt;" style="text;whiteSpace=wrap;html=1;" parent="1" vertex="1">
          <mxGeometry x="1894" y="1118.26" width="130" height="40" as="geometry" />
        </mxCell>
        <mxCell id="fz_pyWFYt5tnEP6ohB9D-58" value="&lt;font style=&quot;font-size: 22px;&quot;&gt;deploy-dev-app&lt;/font&gt;" style="rounded=1;whiteSpace=wrap;html=1;verticalAlign=top;fillColor=#0050ef;strokeColor=#001DBC;opacity=20;fontColor=#003366;" parent="1" vertex="1">
          <mxGeometry x="2350" y="340" width="340" height="200" as="geometry" />
        </mxCell>
        <mxCell id="fz_pyWFYt5tnEP6ohB9D-59" value="&lt;div style=&quot;forced-color-adjust: none; color: rgb(204, 204, 204); background-color: rgb(31, 31, 31); font-family: Consolas, &amp;quot;Courier New&amp;quot;, monospace; font-weight: normal; font-size: 14px; line-height: 19px; white-space: pre;&quot;&gt;&lt;div style=&quot;forced-color-adjust: none;&quot;&gt;&lt;span style=&quot;forced-color-adjust: none; color: rgb(204, 204, 204);&quot;&gt;&amp;nbsp;- &lt;/span&gt;&lt;span style=&quot;forced-color-adjust: none; color: rgb(206, 145, 120);&quot;&gt;docker-compose up&lt;/span&gt;&lt;/div&gt;&lt;/div&gt;" style="text;whiteSpace=wrap;html=1;" parent="1" vertex="1">
          <mxGeometry x="2444" y="398.26" width="130" height="40" as="geometry" />
        </mxCell>
        <mxCell id="fz_pyWFYt5tnEP6ohB9D-60" value="Container flask_app" style="rounded=1;whiteSpace=wrap;html=1;fontSize=16;" parent="1" vertex="1">
          <mxGeometry x="2430" y="448.26" width="180" height="70" as="geometry" />
        </mxCell>
        <mxCell id="fz_pyWFYt5tnEP6ohB9D-61" value="&lt;font style=&quot;font-size: 22px;&quot;&gt;stop-dev-app&lt;/font&gt;" style="rounded=1;whiteSpace=wrap;html=1;verticalAlign=top;fillColor=#0050ef;strokeColor=#001DBC;opacity=20;fontColor=#003366;" parent="1" vertex="1">
          <mxGeometry x="2350" y="550" width="340" height="100" as="geometry" />
        </mxCell>
        <mxCell id="fz_pyWFYt5tnEP6ohB9D-62" value="&lt;div style=&quot;forced-color-adjust: none; color: rgb(204, 204, 204); background-color: rgb(31, 31, 31); font-family: Consolas, &amp;quot;Courier New&amp;quot;, monospace; font-weight: normal; font-size: 14px; line-height: 19px; white-space: pre;&quot;&gt;&lt;div style=&quot;forced-color-adjust: none;&quot;&gt;&lt;span style=&quot;forced-color-adjust: none; color: rgb(204, 204, 204);&quot;&gt;&amp;nbsp;- &lt;/span&gt;&lt;span style=&quot;forced-color-adjust: none; color: rgb(206, 145, 120);&quot;&gt;docker-compose down&lt;/span&gt;&lt;/div&gt;&lt;/div&gt;" style="text;whiteSpace=wrap;html=1;" parent="1" vertex="1">
          <mxGeometry x="2444" y="590" width="130" height="40" as="geometry" />
        </mxCell>
        <mxCell id="fz_pyWFYt5tnEP6ohB9D-64" value="&lt;font style=&quot;font-size: 22px;&quot;&gt;deploy-dev-app_admin&lt;/font&gt;" style="rounded=1;whiteSpace=wrap;html=1;verticalAlign=top;fillColor=#0050ef;strokeColor=#001DBC;opacity=20;fontColor=#003366;" parent="1" vertex="1">
          <mxGeometry x="2360" y="690" width="340" height="200" as="geometry" />
        </mxCell>
        <mxCell id="fz_pyWFYt5tnEP6ohB9D-65" value="&lt;div style=&quot;forced-color-adjust: none; color: rgb(204, 204, 204); background-color: rgb(31, 31, 31); font-family: Consolas, &amp;quot;Courier New&amp;quot;, monospace; font-weight: normal; font-size: 14px; line-height: 19px; white-space: pre;&quot;&gt;&lt;div style=&quot;forced-color-adjust: none;&quot;&gt;&lt;span style=&quot;forced-color-adjust: none; color: rgb(204, 204, 204);&quot;&gt;&amp;nbsp;- &lt;/span&gt;&lt;span style=&quot;forced-color-adjust: none; color: rgb(206, 145, 120);&quot;&gt;docker-compose up&lt;/span&gt;&lt;/div&gt;&lt;/div&gt;" style="text;whiteSpace=wrap;html=1;" parent="1" vertex="1">
          <mxGeometry x="2454" y="748.26" width="130" height="40" as="geometry" />
        </mxCell>
        <mxCell id="fz_pyWFYt5tnEP6ohB9D-66" value="&lt;blockquote style=&quot;margin: 0 0 0 40px; border: none; padding: 0px;&quot;&gt;Container app_admin&lt;/blockquote&gt;" style="rounded=1;whiteSpace=wrap;html=1;fontSize=16;" parent="1" vertex="1">
          <mxGeometry x="2440" y="798.26" width="180" height="70" as="geometry" />
        </mxCell>
        <mxCell id="fz_pyWFYt5tnEP6ohB9D-67" value="&lt;font style=&quot;font-size: 22px;&quot;&gt;stop-dev-app_admin&lt;/font&gt;" style="rounded=1;whiteSpace=wrap;html=1;verticalAlign=top;fillColor=#0050ef;strokeColor=#001DBC;opacity=20;fontColor=#003366;" parent="1" vertex="1">
          <mxGeometry x="2360" y="900" width="340" height="100" as="geometry" />
        </mxCell>
        <mxCell id="fz_pyWFYt5tnEP6ohB9D-68" value="&lt;div style=&quot;forced-color-adjust: none; color: rgb(204, 204, 204); background-color: rgb(31, 31, 31); font-family: Consolas, &amp;quot;Courier New&amp;quot;, monospace; font-weight: normal; font-size: 14px; line-height: 19px; white-space: pre;&quot;&gt;&lt;div style=&quot;forced-color-adjust: none;&quot;&gt;&lt;span style=&quot;forced-color-adjust: none; color: rgb(204, 204, 204);&quot;&gt;&amp;nbsp;- &lt;/span&gt;&lt;span style=&quot;forced-color-adjust: none; color: rgb(206, 145, 120);&quot;&gt;docker-compose down&lt;/span&gt;&lt;/div&gt;&lt;/div&gt;" style="text;whiteSpace=wrap;html=1;" parent="1" vertex="1">
          <mxGeometry x="2454" y="940" width="130" height="40" as="geometry" />
        </mxCell>
        <mxCell id="fz_pyWFYt5tnEP6ohB9D-69" value="&lt;font style=&quot;font-size: 22px;&quot;&gt;deploy-dev-app_dash&lt;/font&gt;" style="rounded=1;whiteSpace=wrap;html=1;verticalAlign=top;fillColor=#0050ef;strokeColor=#001DBC;opacity=20;fontColor=#003366;" parent="1" vertex="1">
          <mxGeometry x="2360" y="1040" width="340" height="200" as="geometry" />
        </mxCell>
        <mxCell id="fz_pyWFYt5tnEP6ohB9D-70" value="&lt;div style=&quot;forced-color-adjust: none; color: rgb(204, 204, 204); background-color: rgb(31, 31, 31); font-family: Consolas, &amp;quot;Courier New&amp;quot;, monospace; font-weight: normal; font-size: 14px; line-height: 19px; white-space: pre;&quot;&gt;&lt;div style=&quot;forced-color-adjust: none;&quot;&gt;&lt;span style=&quot;forced-color-adjust: none; color: rgb(204, 204, 204);&quot;&gt;&amp;nbsp;- &lt;/span&gt;&lt;span style=&quot;forced-color-adjust: none; color: rgb(206, 145, 120);&quot;&gt;docker-compose up&lt;/span&gt;&lt;/div&gt;&lt;/div&gt;" style="text;whiteSpace=wrap;html=1;" parent="1" vertex="1">
          <mxGeometry x="2454" y="1098.26" width="130" height="40" as="geometry" />
        </mxCell>
        <mxCell id="fz_pyWFYt5tnEP6ohB9D-71" value="Container app_dash" style="rounded=1;whiteSpace=wrap;html=1;fontSize=16;" parent="1" vertex="1">
          <mxGeometry x="2440" y="1148.2600000000002" width="180" height="70" as="geometry" />
        </mxCell>
        <mxCell id="fz_pyWFYt5tnEP6ohB9D-72" value="&lt;font style=&quot;font-size: 22px;&quot;&gt;stop-dev-app_dash&lt;/font&gt;" style="rounded=1;whiteSpace=wrap;html=1;verticalAlign=top;fillColor=#0050ef;strokeColor=#001DBC;opacity=20;fontColor=#003366;" parent="1" vertex="1">
          <mxGeometry x="2360" y="1250" width="340" height="100" as="geometry" />
        </mxCell>
        <mxCell id="fz_pyWFYt5tnEP6ohB9D-73" value="&lt;div style=&quot;forced-color-adjust: none; color: rgb(204, 204, 204); background-color: rgb(31, 31, 31); font-family: Consolas, &amp;quot;Courier New&amp;quot;, monospace; font-weight: normal; font-size: 14px; line-height: 19px; white-space: pre;&quot;&gt;&lt;div style=&quot;forced-color-adjust: none;&quot;&gt;&lt;span style=&quot;forced-color-adjust: none; color: rgb(204, 204, 204);&quot;&gt;&amp;nbsp;- &lt;/span&gt;&lt;span style=&quot;forced-color-adjust: none; color: rgb(206, 145, 120);&quot;&gt;docker-compose down&lt;/span&gt;&lt;/div&gt;&lt;/div&gt;" style="text;whiteSpace=wrap;html=1;" parent="1" vertex="1">
          <mxGeometry x="2454" y="1290" width="130" height="40" as="geometry" />
        </mxCell>
        <mxCell id="fz_pyWFYt5tnEP6ohB9D-74" value="&lt;font style=&quot;font-size: 22px;&quot;&gt;deploy-dev-app_form&lt;/font&gt;" style="rounded=1;whiteSpace=wrap;html=1;verticalAlign=top;fillColor=#0050ef;strokeColor=#001DBC;opacity=20;fontColor=#003366;" parent="1" vertex="1">
          <mxGeometry x="2360" y="1390.52" width="340" height="200" as="geometry" />
        </mxCell>
        <mxCell id="fz_pyWFYt5tnEP6ohB9D-75" value="&lt;div style=&quot;forced-color-adjust: none; color: rgb(204, 204, 204); background-color: rgb(31, 31, 31); font-family: Consolas, &amp;quot;Courier New&amp;quot;, monospace; font-weight: normal; font-size: 14px; line-height: 19px; white-space: pre;&quot;&gt;&lt;div style=&quot;forced-color-adjust: none;&quot;&gt;&lt;span style=&quot;forced-color-adjust: none; color: rgb(204, 204, 204);&quot;&gt;&amp;nbsp;- &lt;/span&gt;&lt;span style=&quot;forced-color-adjust: none; color: rgb(206, 145, 120);&quot;&gt;docker-compose up&lt;/span&gt;&lt;/div&gt;&lt;/div&gt;" style="text;whiteSpace=wrap;html=1;" parent="1" vertex="1">
          <mxGeometry x="2454" y="1448.7799999999997" width="130" height="40" as="geometry" />
        </mxCell>
        <mxCell id="fz_pyWFYt5tnEP6ohB9D-76" value="Container app_form" style="rounded=1;whiteSpace=wrap;html=1;fontSize=16;" parent="1" vertex="1">
          <mxGeometry x="2440" y="1498.7799999999997" width="180" height="70" as="geometry" />
        </mxCell>
        <mxCell id="fz_pyWFYt5tnEP6ohB9D-77" value="&lt;font style=&quot;font-size: 22px;&quot;&gt;stop-dev-app_form&lt;/font&gt;" style="rounded=1;whiteSpace=wrap;html=1;verticalAlign=top;fillColor=#0050ef;strokeColor=#001DBC;opacity=20;fontColor=#003366;" parent="1" vertex="1">
          <mxGeometry x="2360" y="1600.52" width="340" height="100" as="geometry" />
        </mxCell>
        <mxCell id="fz_pyWFYt5tnEP6ohB9D-78" value="&lt;div style=&quot;forced-color-adjust: none; color: rgb(204, 204, 204); background-color: rgb(31, 31, 31); font-family: Consolas, &amp;quot;Courier New&amp;quot;, monospace; font-weight: normal; font-size: 14px; line-height: 19px; white-space: pre;&quot;&gt;&lt;div style=&quot;forced-color-adjust: none;&quot;&gt;&lt;span style=&quot;forced-color-adjust: none; color: rgb(204, 204, 204);&quot;&gt;&amp;nbsp;- &lt;/span&gt;&lt;span style=&quot;forced-color-adjust: none; color: rgb(206, 145, 120);&quot;&gt;docker-compose down&lt;/span&gt;&lt;/div&gt;&lt;/div&gt;" style="text;whiteSpace=wrap;html=1;" parent="1" vertex="1">
          <mxGeometry x="2454" y="1640.52" width="130" height="40" as="geometry" />
        </mxCell>
        <mxCell id="fz_pyWFYt5tnEP6ohB9D-97" value="Shell Executor" style="sketch=0;aspect=fixed;pointerEvents=1;shadow=0;dashed=0;html=1;strokeColor=none;labelPosition=center;verticalLabelPosition=bottom;verticalAlign=top;align=center;fillColor=#66B2FF;shape=mxgraph.mscae.enterprise.settings;fontSize=30;fontColor=#8F8F8F;" parent="1" vertex="1">
          <mxGeometry x="1040" y="376" width="120" height="120" as="geometry" />
        </mxCell>
      </root>
    </mxGraphModel>
  </diagram>
</mxfile>
